<?xml version="1.0" encoding="UTF-8" standalone="no"?>
<!DOCTYPE svg PUBLIC "-//W3C//DTD SVG 1.1//EN"
 "http://www.w3.org/Graphics/SVG/1.1/DTD/svg11.dtd">
<!-- Generated by graphviz version 9.0.0 (20230911.1827)
 -->
<!-- Title: Tree Pages: 1 -->
<svg width="720pt" height="433pt"
 viewBox="0.00 0.00 720.00 433.47" xmlns="http://www.w3.org/2000/svg" xmlns:xlink="http://www.w3.org/1999/xlink">
<g id="graph0" class="graph" transform="scale(0.404097 0.404097) rotate(0) translate(4 1068.68)">
<title>Tree</title>
<polygon fill="white" stroke="none" points="-4,4 -4,-1068.68 1777.75,-1068.68 1777.75,4 -4,4"/>
<!-- 0 -->
<g id="node1" class="node">
<title>0</title>
<path fill="#eaf5fc" stroke="black" d="M998.25,-1037C998.25,-1037 804.5,-1037 804.5,-1037 798.5,-1037 792.5,-1031 792.5,-1025 792.5,-1025 792.5,-975 792.5,-975 792.5,-969 798.5,-963 804.5,-963 804.5,-963 998.25,-963 998.25,-963 1004.25,-963 1010.25,-969 1010.25,-975 1010.25,-975 1010.25,-1025 1010.25,-1025 1010.25,-1031 1004.25,-1037 998.25,-1037"/>
<text text-anchor="start" x="800.5" y="-1019.7" font-family="Helvetica,sans-Serif" font-size="14.00">home_less_goals_against ≤ 0.5</text>
<text text-anchor="start" x="872.5" y="-1003.2" font-family="Helvetica,sans-Serif" font-size="14.00">gini = 0.5</text>
<text text-anchor="start" x="850" y="-986.7" font-family="Helvetica,sans-Serif" font-size="14.00">samples = 1326</text>
<text text-anchor="start" x="844.75" y="-970.2" font-family="Helvetica,sans-Serif" font-size="14.00">value = [626, 700]</text>
</g>
<!-- 1 -->
<g id="node2" class="node">
<title>1</title>
<path fill="#f7d7c0" stroke="black" d="M867.12,-844C867.12,-844 723.62,-844 723.62,-844 717.62,-844 711.62,-838 711.62,-832 711.62,-832 711.62,-782 711.62,-782 711.62,-776 717.62,-770 723.62,-770 723.62,-770 867.12,-770 867.12,-770 873.12,-770 879.12,-776 879.12,-782 879.12,-782 879.12,-832 879.12,-832 879.12,-838 873.12,-844 867.12,-844"/>
<text text-anchor="start" x="719.62" y="-826.7" font-family="Helvetica,sans-Serif" font-size="14.00">home_more_PPG ≤ 0.5</text>
<text text-anchor="start" x="762.38" y="-810.2" font-family="Helvetica,sans-Serif" font-size="14.00">gini = 0.48</text>
<text text-anchor="start" x="748.12" y="-793.7" font-family="Helvetica,sans-Serif" font-size="14.00">samples = 653</text>
<text text-anchor="start" x="738.75" y="-777.2" font-family="Helvetica,sans-Serif" font-size="14.00">value = [388, 265]</text>
</g>
<!-- 0&#45;&gt;1 -->
<g id="edge1" class="edge">
<title>0&#45;&gt;1</title>
<path fill="none" stroke="black" d="M881.19,-962.62C864.09,-931.82 839.49,-887.5 821.01,-854.19"/>
<polygon fill="black" stroke="black" points="824.13,-852.61 816.22,-845.56 818.01,-856.01 824.13,-852.61"/>
<text text-anchor="middle" x="808.61" y="-863.22" font-family="Helvetica,sans-Serif" font-size="14.00">True</text>
</g>
<!-- 18 -->
<g id="node19" class="node">
<title>18</title>
<path fill="#a5d3f3" stroke="black" d="M1236,-844C1236,-844 1088.75,-844 1088.75,-844 1082.75,-844 1076.75,-838 1076.75,-832 1076.75,-832 1076.75,-782 1076.75,-782 1076.75,-776 1082.75,-770 1088.75,-770 1088.75,-770 1236,-770 1236,-770 1242,-770 1248,-776 1248,-782 1248,-782 1248,-832 1248,-832 1248,-838 1242,-844 1236,-844"/>
<text text-anchor="start" x="1084.75" y="-826.7" font-family="Helvetica,sans-Serif" font-size="14.00">home_more_goals ≤ 0.5</text>
<text text-anchor="start" x="1129.38" y="-810.2" font-family="Helvetica,sans-Serif" font-size="14.00">gini = 0.46</text>
<text text-anchor="start" x="1115.12" y="-793.7" font-family="Helvetica,sans-Serif" font-size="14.00">samples = 673</text>
<text text-anchor="start" x="1105.75" y="-777.2" font-family="Helvetica,sans-Serif" font-size="14.00">value = [238, 435]</text>
</g>
<!-- 0&#45;&gt;18 -->
<g id="edge18" class="edge">
<title>0&#45;&gt;18</title>
<path fill="none" stroke="black" d="M951.08,-962.62C994.53,-930.83 1057.68,-884.62 1103.62,-851"/>
<polygon fill="black" stroke="black" points="1105.63,-853.86 1111.63,-845.13 1101.5,-848.21 1105.63,-853.86"/>
<text text-anchor="middle" x="1109.03" y="-863.9" font-family="Helvetica,sans-Serif" font-size="14.00">False</text>
</g>
<!-- 2 -->
<g id="node3" class="node">
<title>2</title>
<path fill="#f3c6a6" stroke="black" d="M588,-651C588,-651 440.75,-651 440.75,-651 434.75,-651 428.75,-645 428.75,-639 428.75,-639 428.75,-589 428.75,-589 428.75,-583 434.75,-577 440.75,-577 440.75,-577 588,-577 588,-577 594,-577 600,-583 600,-589 600,-589 600,-639 600,-639 600,-645 594,-651 588,-651"/>
<text text-anchor="start" x="436.75" y="-633.7" font-family="Helvetica,sans-Serif" font-size="14.00">home_more_goals ≤ 0.5</text>
<text text-anchor="start" x="481.38" y="-617.2" font-family="Helvetica,sans-Serif" font-size="14.00">gini = 0.46</text>
<text text-anchor="start" x="467.12" y="-600.7" font-family="Helvetica,sans-Serif" font-size="14.00">samples = 387</text>
<text text-anchor="start" x="457.75" y="-584.2" font-family="Helvetica,sans-Serif" font-size="14.00">value = [250, 137]</text>
</g>
<!-- 1&#45;&gt;2 -->
<g id="edge2" class="edge">
<title>1&#45;&gt;2</title>
<path fill="none" stroke="black" d="M741.86,-769.62C694.89,-737.7 626.53,-691.23 577.02,-657.58"/>
<polygon fill="black" stroke="black" points="579.18,-654.82 568.94,-652.09 575.25,-660.61 579.18,-654.82"/>
</g>
<!-- 11 -->
<g id="node12" class="node">
<title>11</title>
<path fill="#fdf6f1" stroke="black" d="M869,-651C869,-651 721.75,-651 721.75,-651 715.75,-651 709.75,-645 709.75,-639 709.75,-639 709.75,-589 709.75,-589 709.75,-583 715.75,-577 721.75,-577 721.75,-577 869,-577 869,-577 875,-577 881,-583 881,-589 881,-589 881,-639 881,-639 881,-645 875,-651 869,-651"/>
<text text-anchor="start" x="717.75" y="-633.7" font-family="Helvetica,sans-Serif" font-size="14.00">home_more_shots ≤ 0.5</text>
<text text-anchor="start" x="766.5" y="-617.2" font-family="Helvetica,sans-Serif" font-size="14.00">gini = 0.5</text>
<text text-anchor="start" x="748.12" y="-600.7" font-family="Helvetica,sans-Serif" font-size="14.00">samples = 266</text>
<text text-anchor="start" x="738.75" y="-584.2" font-family="Helvetica,sans-Serif" font-size="14.00">value = [138, 128]</text>
</g>
<!-- 1&#45;&gt;11 -->
<g id="edge11" class="edge">
<title>1&#45;&gt;11</title>
<path fill="none" stroke="black" d="M795.38,-769.62C795.38,-739.22 795.38,-695.64 795.38,-662.49"/>
<polygon fill="black" stroke="black" points="798.88,-662.75 795.38,-652.75 791.88,-662.75 798.88,-662.75"/>
</g>
<!-- 3 -->
<g id="node4" class="node">
<title>3</title>
<path fill="#f2c19d" stroke="black" d="M428.12,-458C428.12,-458 284.62,-458 284.62,-458 278.62,-458 272.62,-452 272.62,-446 272.62,-446 272.62,-396 272.62,-396 272.62,-390 278.62,-384 284.62,-384 284.62,-384 428.12,-384 428.12,-384 434.12,-384 440.12,-390 440.12,-396 440.12,-396 440.12,-446 440.12,-446 440.12,-452 434.12,-458 428.12,-458"/>
<text text-anchor="start" x="280.62" y="-440.7" font-family="Helvetica,sans-Serif" font-size="14.00">home_more_SHG ≤ 0.5</text>
<text text-anchor="start" x="323.38" y="-424.2" font-family="Helvetica,sans-Serif" font-size="14.00">gini = 0.45</text>
<text text-anchor="start" x="309.12" y="-407.7" font-family="Helvetica,sans-Serif" font-size="14.00">samples = 322</text>
<text text-anchor="start" x="287.75" y="-391.2" font-family="Helvetica,sans-Serif" font-size="14.00">value = [214.0, 108.0]</text>
</g>
<!-- 2&#45;&gt;3 -->
<g id="edge3" class="edge">
<title>2&#45;&gt;3</title>
<path fill="none" stroke="black" d="M484.28,-576.62C458.48,-545.43 421.19,-500.35 393.52,-466.91"/>
<polygon fill="black" stroke="black" points="396.39,-464.88 387.32,-459.41 391,-469.34 396.39,-464.88"/>
</g>
<!-- 10 -->
<g id="node11" class="node">
<title>10</title>
<path fill="#fae7d9" stroke="black" d="M558.75,-449.75C558.75,-449.75 470,-449.75 470,-449.75 464,-449.75 458,-443.75 458,-437.75 458,-437.75 458,-404.25 458,-404.25 458,-398.25 464,-392.25 470,-392.25 470,-392.25 558.75,-392.25 558.75,-392.25 564.75,-392.25 570.75,-398.25 570.75,-404.25 570.75,-404.25 570.75,-437.75 570.75,-437.75 570.75,-443.75 564.75,-449.75 558.75,-449.75"/>
<text text-anchor="start" x="481.38" y="-432.45" font-family="Helvetica,sans-Serif" font-size="14.00">gini = 0.49</text>
<text text-anchor="start" x="471.25" y="-415.95" font-family="Helvetica,sans-Serif" font-size="14.00">samples = 65</text>
<text text-anchor="start" x="466" y="-399.45" font-family="Helvetica,sans-Serif" font-size="14.00">value = [36, 29]</text>
</g>
<!-- 2&#45;&gt;10 -->
<g id="edge10" class="edge">
<title>2&#45;&gt;10</title>
<path fill="none" stroke="black" d="M514.38,-576.62C514.38,-543.71 514.38,-495.33 514.38,-461.48"/>
<polygon fill="black" stroke="black" points="517.88,-461.68 514.38,-451.68 510.88,-461.68 517.88,-461.68"/>
</g>
<!-- 4 -->
<g id="node5" class="node">
<title>4</title>
<path fill="#f3c4a3" stroke="black" d="M245.25,-266C245.25,-266 99.5,-266 99.5,-266 93.5,-266 87.5,-260 87.5,-254 87.5,-254 87.5,-204 87.5,-204 87.5,-198 93.5,-192 99.5,-192 99.5,-192 245.25,-192 245.25,-192 251.25,-192 257.25,-198 257.25,-204 257.25,-204 257.25,-254 257.25,-254 257.25,-260 251.25,-266 245.25,-266"/>
<text text-anchor="start" x="95.5" y="-248.7" font-family="Helvetica,sans-Serif" font-size="14.00">home_more_PIMs ≤ 0.5</text>
<text text-anchor="start" x="139.38" y="-232.2" font-family="Helvetica,sans-Serif" font-size="14.00">gini = 0.45</text>
<text text-anchor="start" x="125.12" y="-215.7" font-family="Helvetica,sans-Serif" font-size="14.00">samples = 207</text>
<text text-anchor="start" x="119.88" y="-199.2" font-family="Helvetica,sans-Serif" font-size="14.00">value = [135, 72]</text>
</g>
<!-- 3&#45;&gt;4 -->
<g id="edge4" class="edge">
<title>3&#45;&gt;4</title>
<path fill="none" stroke="black" d="M321.33,-383.82C291.25,-352.75 247.76,-307.84 215.53,-274.57"/>
<polygon fill="black" stroke="black" points="218.12,-272.21 208.65,-267.46 213.09,-277.08 218.12,-272.21"/>
</g>
<!-- 7 -->
<g id="node8" class="node">
<title>7</title>
<path fill="#f1ba93" stroke="black" d="M433.25,-266C433.25,-266 287.5,-266 287.5,-266 281.5,-266 275.5,-260 275.5,-254 275.5,-254 275.5,-204 275.5,-204 275.5,-198 281.5,-192 287.5,-192 287.5,-192 433.25,-192 433.25,-192 439.25,-192 445.25,-198 445.25,-204 445.25,-204 445.25,-254 445.25,-254 445.25,-260 439.25,-266 433.25,-266"/>
<text text-anchor="start" x="283.5" y="-248.7" font-family="Helvetica,sans-Serif" font-size="14.00">home_more_PIMs ≤ 0.5</text>
<text text-anchor="start" x="327.38" y="-232.2" font-family="Helvetica,sans-Serif" font-size="14.00">gini = 0.43</text>
<text text-anchor="start" x="313.12" y="-215.7" font-family="Helvetica,sans-Serif" font-size="14.00">samples = 115</text>
<text text-anchor="start" x="312" y="-199.2" font-family="Helvetica,sans-Serif" font-size="14.00">value = [79, 36]</text>
</g>
<!-- 3&#45;&gt;7 -->
<g id="edge7" class="edge">
<title>3&#45;&gt;7</title>
<path fill="none" stroke="black" d="M357.14,-383.82C357.77,-353.67 358.68,-310.5 359.37,-277.56"/>
<polygon fill="black" stroke="black" points="362.87,-277.96 359.58,-267.89 355.87,-277.81 362.87,-277.96"/>
</g>
<!-- 5 -->
<g id="node6" class="node">
<title>5</title>
<path fill="#f5d0b5" stroke="black" d="M100.75,-78.75C100.75,-78.75 12,-78.75 12,-78.75 6,-78.75 0,-72.75 0,-66.75 0,-66.75 0,-33.25 0,-33.25 0,-27.25 6,-21.25 12,-21.25 12,-21.25 100.75,-21.25 100.75,-21.25 106.75,-21.25 112.75,-27.25 112.75,-33.25 112.75,-33.25 112.75,-66.75 112.75,-66.75 112.75,-72.75 106.75,-78.75 100.75,-78.75"/>
<text text-anchor="start" x="23.38" y="-61.45" font-family="Helvetica,sans-Serif" font-size="14.00">gini = 0.47</text>
<text text-anchor="start" x="13.25" y="-44.95" font-family="Helvetica,sans-Serif" font-size="14.00">samples = 91</text>
<text text-anchor="start" x="8" y="-28.45" font-family="Helvetica,sans-Serif" font-size="14.00">value = [56, 35]</text>
</g>
<!-- 4&#45;&gt;5 -->
<g id="edge5" class="edge">
<title>4&#45;&gt;5</title>
<path fill="none" stroke="black" d="M148.62,-191.75C128.88,-161.64 100.9,-118.94 80.94,-88.49"/>
<polygon fill="black" stroke="black" points="84,-86.77 75.59,-80.33 78.15,-90.61 84,-86.77"/>
</g>
<!-- 6 -->
<g id="node7" class="node">
<title>6</title>
<path fill="#f1bc96" stroke="black" d="M231.75,-78.75C231.75,-78.75 143,-78.75 143,-78.75 137,-78.75 131,-72.75 131,-66.75 131,-66.75 131,-33.25 131,-33.25 131,-27.25 137,-21.25 143,-21.25 143,-21.25 231.75,-21.25 231.75,-21.25 237.75,-21.25 243.75,-27.25 243.75,-33.25 243.75,-33.25 243.75,-66.75 243.75,-66.75 243.75,-72.75 237.75,-78.75 231.75,-78.75"/>
<text text-anchor="start" x="154.38" y="-61.45" font-family="Helvetica,sans-Serif" font-size="14.00">gini = 0.43</text>
<text text-anchor="start" x="140.12" y="-44.95" font-family="Helvetica,sans-Serif" font-size="14.00">samples = 116</text>
<text text-anchor="start" x="139" y="-28.45" font-family="Helvetica,sans-Serif" font-size="14.00">value = [79, 37]</text>
</g>
<!-- 4&#45;&gt;6 -->
<g id="edge6" class="edge">
<title>4&#45;&gt;6</title>
<path fill="none" stroke="black" d="M175.45,-191.75C177.94,-162.29 181.46,-120.78 184.03,-90.48"/>
<polygon fill="black" stroke="black" points="187.51,-90.83 184.87,-80.57 180.54,-90.24 187.51,-90.83"/>
</g>
<!-- 8 -->
<g id="node9" class="node">
<title>8</title>
<path fill="#eeab7b" stroke="black" d="M390.75,-78.75C390.75,-78.75 302,-78.75 302,-78.75 296,-78.75 290,-72.75 290,-66.75 290,-66.75 290,-33.25 290,-33.25 290,-27.25 296,-21.25 302,-21.25 302,-21.25 390.75,-21.25 390.75,-21.25 396.75,-21.25 402.75,-27.25 402.75,-33.25 402.75,-33.25 402.75,-66.75 402.75,-66.75 402.75,-72.75 396.75,-78.75 390.75,-78.75"/>
<text text-anchor="start" x="313.38" y="-61.45" font-family="Helvetica,sans-Serif" font-size="14.00">gini = 0.38</text>
<text text-anchor="start" x="303.25" y="-44.95" font-family="Helvetica,sans-Serif" font-size="14.00">samples = 56</text>
<text text-anchor="start" x="298" y="-28.45" font-family="Helvetica,sans-Serif" font-size="14.00">value = [42, 14]</text>
</g>
<!-- 7&#45;&gt;8 -->
<g id="edge8" class="edge">
<title>7&#45;&gt;8</title>
<path fill="none" stroke="black" d="M357.51,-191.75C355.18,-162.29 351.89,-120.78 349.5,-90.48"/>
<polygon fill="black" stroke="black" points="352.99,-90.26 348.71,-80.57 346.01,-90.81 352.99,-90.26"/>
</g>
<!-- 9 -->
<g id="node10" class="node">
<title>9</title>
<path fill="#f4ccaf" stroke="black" d="M521.75,-78.75C521.75,-78.75 433,-78.75 433,-78.75 427,-78.75 421,-72.75 421,-66.75 421,-66.75 421,-33.25 421,-33.25 421,-27.25 427,-21.25 433,-21.25 433,-21.25 521.75,-21.25 521.75,-21.25 527.75,-21.25 533.75,-27.25 533.75,-33.25 533.75,-33.25 533.75,-66.75 533.75,-66.75 533.75,-72.75 527.75,-78.75 521.75,-78.75"/>
<text text-anchor="start" x="444.38" y="-61.45" font-family="Helvetica,sans-Serif" font-size="14.00">gini = 0.47</text>
<text text-anchor="start" x="434.25" y="-44.95" font-family="Helvetica,sans-Serif" font-size="14.00">samples = 59</text>
<text text-anchor="start" x="429" y="-28.45" font-family="Helvetica,sans-Serif" font-size="14.00">value = [37, 22]</text>
</g>
<!-- 7&#45;&gt;9 -->
<g id="edge9" class="edge">
<title>7&#45;&gt;9</title>
<path fill="none" stroke="black" d="M384.33,-191.75C404.24,-161.64 432.46,-118.94 452.6,-88.49"/>
<polygon fill="black" stroke="black" points="455.4,-90.59 457.99,-80.32 449.56,-86.73 455.4,-90.59"/>
</g>
<!-- 12 -->
<g id="node13" class="node">
<title>12</title>
<path fill="#f9e1d1" stroke="black" d="M748,-458C748,-458 600.75,-458 600.75,-458 594.75,-458 588.75,-452 588.75,-446 588.75,-446 588.75,-396 588.75,-396 588.75,-390 594.75,-384 600.75,-384 600.75,-384 748,-384 748,-384 754,-384 760,-390 760,-396 760,-396 760,-446 760,-446 760,-452 754,-458 748,-458"/>
<text text-anchor="start" x="596.75" y="-440.7" font-family="Helvetica,sans-Serif" font-size="14.00">home_more_goals ≤ 0.5</text>
<text text-anchor="start" x="641.38" y="-424.2" font-family="Helvetica,sans-Serif" font-size="14.00">gini = 0.49</text>
<text text-anchor="start" x="627.12" y="-407.7" font-family="Helvetica,sans-Serif" font-size="14.00">samples = 113</text>
<text text-anchor="start" x="626" y="-391.2" font-family="Helvetica,sans-Serif" font-size="14.00">value = [64, 49]</text>
</g>
<!-- 11&#45;&gt;12 -->
<g id="edge12" class="edge">
<title>11&#45;&gt;12</title>
<path fill="none" stroke="black" d="M772.33,-576.62C752.73,-545.69 724.5,-501.12 703.37,-467.76"/>
<polygon fill="black" stroke="black" points="706.45,-466.09 698.14,-459.52 700.54,-469.84 706.45,-466.09"/>
</g>
<!-- 15 -->
<g id="node16" class="node">
<title>15</title>
<path fill="#f2f9fd" stroke="black" d="M984.25,-458C984.25,-458 790.5,-458 790.5,-458 784.5,-458 778.5,-452 778.5,-446 778.5,-446 778.5,-396 778.5,-396 778.5,-390 784.5,-384 790.5,-384 790.5,-384 984.25,-384 984.25,-384 990.25,-384 996.25,-390 996.25,-396 996.25,-396 996.25,-446 996.25,-446 996.25,-452 990.25,-458 984.25,-458"/>
<text text-anchor="start" x="786.5" y="-440.7" font-family="Helvetica,sans-Serif" font-size="14.00">home_less_shots_against ≤ 0.5</text>
<text text-anchor="start" x="858.5" y="-424.2" font-family="Helvetica,sans-Serif" font-size="14.00">gini = 0.5</text>
<text text-anchor="start" x="840.12" y="-407.7" font-family="Helvetica,sans-Serif" font-size="14.00">samples = 153</text>
<text text-anchor="start" x="827" y="-391.2" font-family="Helvetica,sans-Serif" font-size="14.00">value = [74.0, 79.0]</text>
</g>
<!-- 11&#45;&gt;15 -->
<g id="edge15" class="edge">
<title>11&#45;&gt;15</title>
<path fill="none" stroke="black" d="M812.9,-576.62C827.73,-545.82 849.08,-501.5 865.12,-468.19"/>
<polygon fill="black" stroke="black" points="868.08,-470.13 869.26,-459.6 861.77,-467.09 868.08,-470.13"/>
</g>
<!-- 13 -->
<g id="node14" class="node">
<title>13</title>
<path fill="#f8decb" stroke="black" d="M593.75,-257.75C593.75,-257.75 505,-257.75 505,-257.75 499,-257.75 493,-251.75 493,-245.75 493,-245.75 493,-212.25 493,-212.25 493,-206.25 499,-200.25 505,-200.25 505,-200.25 593.75,-200.25 593.75,-200.25 599.75,-200.25 605.75,-206.25 605.75,-212.25 605.75,-212.25 605.75,-245.75 605.75,-245.75 605.75,-251.75 599.75,-257.75 593.75,-257.75"/>
<text text-anchor="start" x="516.38" y="-240.45" font-family="Helvetica,sans-Serif" font-size="14.00">gini = 0.49</text>
<text text-anchor="start" x="506.25" y="-223.95" font-family="Helvetica,sans-Serif" font-size="14.00">samples = 59</text>
<text text-anchor="start" x="501" y="-207.45" font-family="Helvetica,sans-Serif" font-size="14.00">value = [34, 25]</text>
</g>
<!-- 12&#45;&gt;13 -->
<g id="edge13" class="edge">
<title>12&#45;&gt;13</title>
<path fill="none" stroke="black" d="M650.57,-383.82C628.65,-350.5 596.26,-301.26 574.06,-267.53"/>
<polygon fill="black" stroke="black" points="577.06,-265.71 568.64,-259.28 571.21,-269.56 577.06,-265.71"/>
</g>
<!-- 14 -->
<g id="node15" class="node">
<title>14</title>
<path fill="#fae6d7" stroke="black" d="M724.75,-257.75C724.75,-257.75 636,-257.75 636,-257.75 630,-257.75 624,-251.75 624,-245.75 624,-245.75 624,-212.25 624,-212.25 624,-206.25 630,-200.25 636,-200.25 636,-200.25 724.75,-200.25 724.75,-200.25 730.75,-200.25 736.75,-206.25 736.75,-212.25 736.75,-212.25 736.75,-245.75 736.75,-245.75 736.75,-251.75 730.75,-257.75 724.75,-257.75"/>
<text text-anchor="start" x="647.38" y="-240.45" font-family="Helvetica,sans-Serif" font-size="14.00">gini = 0.49</text>
<text text-anchor="start" x="637.25" y="-223.95" font-family="Helvetica,sans-Serif" font-size="14.00">samples = 54</text>
<text text-anchor="start" x="632" y="-207.45" font-family="Helvetica,sans-Serif" font-size="14.00">value = [30, 24]</text>
</g>
<!-- 12&#45;&gt;14 -->
<g id="edge14" class="edge">
<title>12&#45;&gt;14</title>
<path fill="none" stroke="black" d="M675.52,-383.82C676.55,-351.07 678.07,-302.95 679.13,-269.28"/>
<polygon fill="black" stroke="black" points="682.62,-269.64 679.44,-259.53 675.63,-269.42 682.62,-269.64"/>
</g>
<!-- 16 -->
<g id="node17" class="node">
<title>16</title>
<path fill="#fefcfb" stroke="black" d="M870.75,-257.75C870.75,-257.75 782,-257.75 782,-257.75 776,-257.75 770,-251.75 770,-245.75 770,-245.75 770,-212.25 770,-212.25 770,-206.25 776,-200.25 782,-200.25 782,-200.25 870.75,-200.25 870.75,-200.25 876.75,-200.25 882.75,-206.25 882.75,-212.25 882.75,-212.25 882.75,-245.75 882.75,-245.75 882.75,-251.75 876.75,-257.75 870.75,-257.75"/>
<text text-anchor="start" x="797.5" y="-240.45" font-family="Helvetica,sans-Serif" font-size="14.00">gini = 0.5</text>
<text text-anchor="start" x="783.25" y="-223.95" font-family="Helvetica,sans-Serif" font-size="14.00">samples = 95</text>
<text text-anchor="start" x="778" y="-207.45" font-family="Helvetica,sans-Serif" font-size="14.00">value = [48, 47]</text>
</g>
<!-- 15&#45;&gt;16 -->
<g id="edge16" class="edge">
<title>15&#45;&gt;16</title>
<path fill="none" stroke="black" d="M875.76,-383.82C865.2,-350.93 849.66,-302.53 838.84,-268.84"/>
<polygon fill="black" stroke="black" points="842.22,-267.91 835.83,-259.46 835.56,-270.05 842.22,-267.91"/>
</g>
<!-- 17 -->
<g id="node18" class="node">
<title>17</title>
<path fill="#daedfa" stroke="black" d="M1001.75,-257.75C1001.75,-257.75 913,-257.75 913,-257.75 907,-257.75 901,-251.75 901,-245.75 901,-245.75 901,-212.25 901,-212.25 901,-206.25 907,-200.25 913,-200.25 913,-200.25 1001.75,-200.25 1001.75,-200.25 1007.75,-200.25 1013.75,-206.25 1013.75,-212.25 1013.75,-212.25 1013.75,-245.75 1013.75,-245.75 1013.75,-251.75 1007.75,-257.75 1001.75,-257.75"/>
<text text-anchor="start" x="924.38" y="-240.45" font-family="Helvetica,sans-Serif" font-size="14.00">gini = 0.49</text>
<text text-anchor="start" x="914.25" y="-223.95" font-family="Helvetica,sans-Serif" font-size="14.00">samples = 58</text>
<text text-anchor="start" x="909" y="-207.45" font-family="Helvetica,sans-Serif" font-size="14.00">value = [26, 32]</text>
</g>
<!-- 15&#45;&gt;17 -->
<g id="edge17" class="edge">
<title>15&#45;&gt;17</title>
<path fill="none" stroke="black" d="M900.71,-383.82C912.88,-350.78 930.81,-302.11 943.23,-268.4"/>
<polygon fill="black" stroke="black" points="946.36,-270.03 946.53,-259.44 939.79,-267.61 946.36,-270.03"/>
</g>
<!-- 19 -->
<g id="node20" class="node">
<title>19</title>
<path fill="#eff7fd" stroke="black" d="M1236,-651C1236,-651 1088.75,-651 1088.75,-651 1082.75,-651 1076.75,-645 1076.75,-639 1076.75,-639 1076.75,-589 1076.75,-589 1076.75,-583 1082.75,-577 1088.75,-577 1088.75,-577 1236,-577 1236,-577 1242,-577 1248,-583 1248,-589 1248,-589 1248,-639 1248,-639 1248,-645 1242,-651 1236,-651"/>
<text text-anchor="start" x="1084.75" y="-633.7" font-family="Helvetica,sans-Serif" font-size="14.00">home_more_shots ≤ 0.5</text>
<text text-anchor="start" x="1133.5" y="-617.2" font-family="Helvetica,sans-Serif" font-size="14.00">gini = 0.5</text>
<text text-anchor="start" x="1115.12" y="-600.7" font-family="Helvetica,sans-Serif" font-size="14.00">samples = 232</text>
<text text-anchor="start" x="1105.75" y="-584.2" font-family="Helvetica,sans-Serif" font-size="14.00">value = [111, 121]</text>
</g>
<!-- 18&#45;&gt;19 -->
<g id="edge19" class="edge">
<title>18&#45;&gt;19</title>
<path fill="none" stroke="black" d="M1162.38,-769.62C1162.38,-739.22 1162.38,-695.64 1162.38,-662.49"/>
<polygon fill="black" stroke="black" points="1165.88,-662.75 1162.38,-652.75 1158.88,-662.75 1165.88,-662.75"/>
</g>
<!-- 24 -->
<g id="node25" class="node">
<title>24</title>
<path fill="#89c5f0" stroke="black" d="M1485.12,-651C1485.12,-651 1341.62,-651 1341.62,-651 1335.62,-651 1329.62,-645 1329.62,-639 1329.62,-639 1329.62,-589 1329.62,-589 1329.62,-583 1335.62,-577 1341.62,-577 1341.62,-577 1485.12,-577 1485.12,-577 1491.12,-577 1497.12,-583 1497.12,-589 1497.12,-589 1497.12,-639 1497.12,-639 1497.12,-645 1491.12,-651 1485.12,-651"/>
<text text-anchor="start" x="1337.62" y="-633.7" font-family="Helvetica,sans-Serif" font-size="14.00">home_more_SHG ≤ 0.5</text>
<text text-anchor="start" x="1380.38" y="-617.2" font-family="Helvetica,sans-Serif" font-size="14.00">gini = 0.41</text>
<text text-anchor="start" x="1366.12" y="-600.7" font-family="Helvetica,sans-Serif" font-size="14.00">samples = 441</text>
<text text-anchor="start" x="1344.75" y="-584.2" font-family="Helvetica,sans-Serif" font-size="14.00">value = [127.0, 314.0]</text>
</g>
<!-- 18&#45;&gt;24 -->
<g id="edge24" class="edge">
<title>18&#45;&gt;24</title>
<path fill="none" stroke="black" d="M1210.18,-769.62C1251.87,-737.9 1312.44,-691.81 1356.59,-658.21"/>
<polygon fill="black" stroke="black" points="1358.71,-661 1364.55,-652.16 1354.47,-655.43 1358.71,-661"/>
</g>
<!-- 20 -->
<g id="node21" class="node">
<title>20</title>
<path fill="#fcf2eb" stroke="black" d="M1172.25,-458C1172.25,-458 1026.5,-458 1026.5,-458 1020.5,-458 1014.5,-452 1014.5,-446 1014.5,-446 1014.5,-396 1014.5,-396 1014.5,-390 1020.5,-384 1026.5,-384 1026.5,-384 1172.25,-384 1172.25,-384 1178.25,-384 1184.25,-390 1184.25,-396 1184.25,-396 1184.25,-446 1184.25,-446 1184.25,-452 1178.25,-458 1172.25,-458"/>
<text text-anchor="start" x="1022.5" y="-440.7" font-family="Helvetica,sans-Serif" font-size="14.00">home_more_PIMs ≤ 0.5</text>
<text text-anchor="start" x="1070.5" y="-424.2" font-family="Helvetica,sans-Serif" font-size="14.00">gini = 0.5</text>
<text text-anchor="start" x="1052.12" y="-407.7" font-family="Helvetica,sans-Serif" font-size="14.00">samples = 148</text>
<text text-anchor="start" x="1039" y="-391.2" font-family="Helvetica,sans-Serif" font-size="14.00">value = [78.0, 70.0]</text>
</g>
<!-- 19&#45;&gt;20 -->
<g id="edge20" class="edge">
<title>19&#45;&gt;20</title>
<path fill="none" stroke="black" d="M1150.38,-576.62C1140.31,-546.09 1125.85,-502.26 1114.9,-469.06"/>
<polygon fill="black" stroke="black" points="1118.26,-468.08 1111.8,-459.68 1111.61,-470.27 1118.26,-468.08"/>
</g>
<!-- 23 -->
<g id="node24" class="node">
<title>23</title>
<path fill="#b9dcf6" stroke="black" d="M1326.75,-449.75C1326.75,-449.75 1214,-449.75 1214,-449.75 1208,-449.75 1202,-443.75 1202,-437.75 1202,-437.75 1202,-404.25 1202,-404.25 1202,-398.25 1208,-392.25 1214,-392.25 1214,-392.25 1326.75,-392.25 1326.75,-392.25 1332.75,-392.25 1338.75,-398.25 1338.75,-404.25 1338.75,-404.25 1338.75,-437.75 1338.75,-437.75 1338.75,-443.75 1332.75,-449.75 1326.75,-449.75"/>
<text text-anchor="start" x="1237.38" y="-432.45" font-family="Helvetica,sans-Serif" font-size="14.00">gini = 0.48</text>
<text text-anchor="start" x="1227.25" y="-415.95" font-family="Helvetica,sans-Serif" font-size="14.00">samples = 84</text>
<text text-anchor="start" x="1210" y="-399.45" font-family="Helvetica,sans-Serif" font-size="14.00">value = [33.0, 51.0]</text>
</g>
<!-- 19&#45;&gt;23 -->
<g id="edge23" class="edge">
<title>19&#45;&gt;23</title>
<path fill="none" stroke="black" d="M1182.94,-576.62C1201.8,-543.27 1229.63,-494.06 1248.8,-460.16"/>
<polygon fill="black" stroke="black" points="1251.83,-461.91 1253.7,-451.48 1245.73,-458.47 1251.83,-461.91"/>
</g>
<!-- 21 -->
<g id="node22" class="node">
<title>21</title>
<path fill="#eef7fd" stroke="black" d="M1139.75,-257.75C1139.75,-257.75 1051,-257.75 1051,-257.75 1045,-257.75 1039,-251.75 1039,-245.75 1039,-245.75 1039,-212.25 1039,-212.25 1039,-206.25 1045,-200.25 1051,-200.25 1051,-200.25 1139.75,-200.25 1139.75,-200.25 1145.75,-200.25 1151.75,-206.25 1151.75,-212.25 1151.75,-212.25 1151.75,-245.75 1151.75,-245.75 1151.75,-251.75 1145.75,-257.75 1139.75,-257.75"/>
<text text-anchor="start" x="1066.5" y="-240.45" font-family="Helvetica,sans-Serif" font-size="14.00">gini = 0.5</text>
<text text-anchor="start" x="1052.25" y="-223.95" font-family="Helvetica,sans-Serif" font-size="14.00">samples = 67</text>
<text text-anchor="start" x="1047" y="-207.45" font-family="Helvetica,sans-Serif" font-size="14.00">value = [32, 35]</text>
</g>
<!-- 20&#45;&gt;21 -->
<g id="edge21" class="edge">
<title>20&#45;&gt;21</title>
<path fill="none" stroke="black" d="M1098.61,-383.82C1097.92,-351.07 1096.91,-302.95 1096.2,-269.28"/>
<polygon fill="black" stroke="black" points="1099.71,-269.46 1096,-259.53 1092.71,-269.6 1099.71,-269.46"/>
</g>
<!-- 22 -->
<g id="node23" class="node">
<title>22</title>
<path fill="#f9e1d0" stroke="black" d="M1270.75,-257.75C1270.75,-257.75 1182,-257.75 1182,-257.75 1176,-257.75 1170,-251.75 1170,-245.75 1170,-245.75 1170,-212.25 1170,-212.25 1170,-206.25 1176,-200.25 1182,-200.25 1182,-200.25 1270.75,-200.25 1270.75,-200.25 1276.75,-200.25 1282.75,-206.25 1282.75,-212.25 1282.75,-212.25 1282.75,-245.75 1282.75,-245.75 1282.75,-251.75 1276.75,-257.75 1270.75,-257.75"/>
<text text-anchor="start" x="1193.38" y="-240.45" font-family="Helvetica,sans-Serif" font-size="14.00">gini = 0.49</text>
<text text-anchor="start" x="1183.25" y="-223.95" font-family="Helvetica,sans-Serif" font-size="14.00">samples = 81</text>
<text text-anchor="start" x="1178" y="-207.45" font-family="Helvetica,sans-Serif" font-size="14.00">value = [46, 35]</text>
</g>
<!-- 20&#45;&gt;22 -->
<g id="edge22" class="edge">
<title>20&#45;&gt;22</title>
<path fill="none" stroke="black" d="M1123.56,-383.82C1145.83,-350.5 1178.74,-301.26 1201.29,-267.53"/>
<polygon fill="black" stroke="black" points="1204.16,-269.54 1206.81,-259.28 1198.34,-265.65 1204.16,-269.54"/>
</g>
<!-- 25 -->
<g id="node26" class="node">
<title>25</title>
<path fill="#b5daf5" stroke="black" d="M1457.75,-449.75C1457.75,-449.75 1369,-449.75 1369,-449.75 1363,-449.75 1357,-443.75 1357,-437.75 1357,-437.75 1357,-404.25 1357,-404.25 1357,-398.25 1363,-392.25 1369,-392.25 1369,-392.25 1457.75,-392.25 1457.75,-392.25 1463.75,-392.25 1469.75,-398.25 1469.75,-404.25 1469.75,-404.25 1469.75,-437.75 1469.75,-437.75 1469.75,-443.75 1463.75,-449.75 1457.75,-449.75"/>
<text text-anchor="start" x="1380.38" y="-432.45" font-family="Helvetica,sans-Serif" font-size="14.00">gini = 0.47</text>
<text text-anchor="start" x="1366.12" y="-415.95" font-family="Helvetica,sans-Serif" font-size="14.00">samples = 117</text>
<text text-anchor="start" x="1365" y="-399.45" font-family="Helvetica,sans-Serif" font-size="14.00">value = [45, 72]</text>
</g>
<!-- 24&#45;&gt;25 -->
<g id="edge25" class="edge">
<title>24&#45;&gt;25</title>
<path fill="none" stroke="black" d="M1413.38,-576.62C1413.38,-543.71 1413.38,-495.33 1413.38,-461.48"/>
<polygon fill="black" stroke="black" points="1416.88,-461.68 1413.38,-451.68 1409.88,-461.68 1416.88,-461.68"/>
</g>
<!-- 26 -->
<g id="node27" class="node">
<title>26</title>
<path fill="#7cbeee" stroke="black" d="M1643.12,-458C1643.12,-458 1499.62,-458 1499.62,-458 1493.62,-458 1487.62,-452 1487.62,-446 1487.62,-446 1487.62,-396 1487.62,-396 1487.62,-390 1493.62,-384 1499.62,-384 1499.62,-384 1643.12,-384 1643.12,-384 1649.12,-384 1655.12,-390 1655.12,-396 1655.12,-396 1655.12,-446 1655.12,-446 1655.12,-452 1649.12,-458 1643.12,-458"/>
<text text-anchor="start" x="1495.62" y="-440.7" font-family="Helvetica,sans-Serif" font-size="14.00">home_more_PPG ≤ 0.5</text>
<text text-anchor="start" x="1538.38" y="-424.2" font-family="Helvetica,sans-Serif" font-size="14.00">gini = 0.38</text>
<text text-anchor="start" x="1524.12" y="-407.7" font-family="Helvetica,sans-Serif" font-size="14.00">samples = 324</text>
<text text-anchor="start" x="1518.88" y="-391.2" font-family="Helvetica,sans-Serif" font-size="14.00">value = [82, 242]</text>
</g>
<!-- 24&#45;&gt;26 -->
<g id="edge26" class="edge">
<title>24&#45;&gt;26</title>
<path fill="none" stroke="black" d="M1443.47,-576.62C1469.27,-545.43 1506.56,-500.35 1534.23,-466.91"/>
<polygon fill="black" stroke="black" points="1536.75,-469.34 1540.43,-459.41 1531.36,-464.88 1536.75,-469.34"/>
</g>
<!-- 27 -->
<g id="node28" class="node">
<title>27</title>
<path fill="#71b9ec" stroke="black" d="M1535.75,-257.75C1535.75,-257.75 1447,-257.75 1447,-257.75 1441,-257.75 1435,-251.75 1435,-245.75 1435,-245.75 1435,-212.25 1435,-212.25 1435,-206.25 1441,-200.25 1447,-200.25 1447,-200.25 1535.75,-200.25 1535.75,-200.25 1541.75,-200.25 1547.75,-206.25 1547.75,-212.25 1547.75,-212.25 1547.75,-245.75 1547.75,-245.75 1547.75,-251.75 1541.75,-257.75 1535.75,-257.75"/>
<text text-anchor="start" x="1458.38" y="-240.45" font-family="Helvetica,sans-Serif" font-size="14.00">gini = 0.34</text>
<text text-anchor="start" x="1448.25" y="-223.95" font-family="Helvetica,sans-Serif" font-size="14.00">samples = 68</text>
<text text-anchor="start" x="1443" y="-207.45" font-family="Helvetica,sans-Serif" font-size="14.00">value = [15, 53]</text>
</g>
<!-- 26&#45;&gt;27 -->
<g id="edge27" class="edge">
<title>26&#45;&gt;27</title>
<path fill="none" stroke="black" d="M1556.14,-383.82C1542.23,-350.78 1521.74,-302.11 1507.54,-268.4"/>
<polygon fill="black" stroke="black" points="1510.87,-267.27 1503.76,-259.41 1504.41,-269.99 1510.87,-267.27"/>
</g>
<!-- 28 -->
<g id="node29" class="node">
<title>28</title>
<path fill="#7fc0ee" stroke="black" d="M1723.25,-266C1723.25,-266 1577.5,-266 1577.5,-266 1571.5,-266 1565.5,-260 1565.5,-254 1565.5,-254 1565.5,-204 1565.5,-204 1565.5,-198 1571.5,-192 1577.5,-192 1577.5,-192 1723.25,-192 1723.25,-192 1729.25,-192 1735.25,-198 1735.25,-204 1735.25,-204 1735.25,-254 1735.25,-254 1735.25,-260 1729.25,-266 1723.25,-266"/>
<text text-anchor="start" x="1573.5" y="-248.7" font-family="Helvetica,sans-Serif" font-size="14.00">home_more_PIMs ≤ 0.5</text>
<text text-anchor="start" x="1617.38" y="-232.2" font-family="Helvetica,sans-Serif" font-size="14.00">gini = 0.39</text>
<text text-anchor="start" x="1603.12" y="-215.7" font-family="Helvetica,sans-Serif" font-size="14.00">samples = 256</text>
<text text-anchor="start" x="1597.88" y="-199.2" font-family="Helvetica,sans-Serif" font-size="14.00">value = [67, 189]</text>
</g>
<!-- 26&#45;&gt;28 -->
<g id="edge28" class="edge">
<title>26&#45;&gt;28</title>
<path fill="none" stroke="black" d="M1586.42,-383.82C1599.06,-353.41 1617.22,-309.74 1630.96,-276.7"/>
<polygon fill="black" stroke="black" points="1634.06,-278.35 1634.67,-267.77 1627.6,-275.66 1634.06,-278.35"/>
</g>
<!-- 29 -->
<g id="node30" class="node">
<title>29</title>
<path fill="#81c0ee" stroke="black" d="M1630.88,-78.75C1630.88,-78.75 1533.88,-78.75 1533.88,-78.75 1527.88,-78.75 1521.88,-72.75 1521.88,-66.75 1521.88,-66.75 1521.88,-33.25 1521.88,-33.25 1521.88,-27.25 1527.88,-21.25 1533.88,-21.25 1533.88,-21.25 1630.88,-21.25 1630.88,-21.25 1636.88,-21.25 1642.88,-27.25 1642.88,-33.25 1642.88,-33.25 1642.88,-66.75 1642.88,-66.75 1642.88,-72.75 1636.88,-78.75 1630.88,-78.75"/>
<text text-anchor="start" x="1549.38" y="-61.45" font-family="Helvetica,sans-Serif" font-size="14.00">gini = 0.39</text>
<text text-anchor="start" x="1535.12" y="-44.95" font-family="Helvetica,sans-Serif" font-size="14.00">samples = 143</text>
<text text-anchor="start" x="1529.88" y="-28.45" font-family="Helvetica,sans-Serif" font-size="14.00">value = [38, 105]</text>
</g>
<!-- 28&#45;&gt;29 -->
<g id="edge29" class="edge">
<title>28&#45;&gt;29</title>
<path fill="none" stroke="black" d="M1636.45,-191.75C1625.03,-162.03 1608.9,-120.05 1597.23,-89.68"/>
<polygon fill="black" stroke="black" points="1600.55,-88.55 1593.7,-80.47 1594.02,-91.06 1600.55,-88.55"/>
</g>
<!-- 30 -->
<g id="node31" class="node">
<title>30</title>
<path fill="#7dbfee" stroke="black" d="M1761.75,-78.75C1761.75,-78.75 1673,-78.75 1673,-78.75 1667,-78.75 1661,-72.75 1661,-66.75 1661,-66.75 1661,-33.25 1661,-33.25 1661,-27.25 1667,-21.25 1673,-21.25 1673,-21.25 1761.75,-21.25 1761.75,-21.25 1767.75,-21.25 1773.75,-27.25 1773.75,-33.25 1773.75,-33.25 1773.75,-66.75 1773.75,-66.75 1773.75,-72.75 1767.75,-78.75 1761.75,-78.75"/>
<text text-anchor="start" x="1684.38" y="-61.45" font-family="Helvetica,sans-Serif" font-size="14.00">gini = 0.38</text>
<text text-anchor="start" x="1670.12" y="-44.95" font-family="Helvetica,sans-Serif" font-size="14.00">samples = 113</text>
<text text-anchor="start" x="1669" y="-28.45" font-family="Helvetica,sans-Serif" font-size="14.00">value = [29, 84]</text>
</g>
<!-- 28&#45;&gt;30 -->
<g id="edge30" class="edge">
<title>28&#45;&gt;30</title>
<path fill="none" stroke="black" d="M1664.1,-191.75C1675.35,-162.03 1691.24,-120.05 1702.73,-89.68"/>
<polygon fill="black" stroke="black" points="1705.95,-91.07 1706.22,-80.48 1699.4,-88.59 1705.95,-91.07"/>
</g>
</g>
</svg>
