<?xml version="1.0" encoding="UTF-8" standalone="no"?>
<!DOCTYPE svg PUBLIC "-//W3C//DTD SVG 1.1//EN"
 "http://www.w3.org/Graphics/SVG/1.1/DTD/svg11.dtd">
<!-- Generated by graphviz version 9.0.0 (20230911.1827)
 -->
<!-- Title: Tree Pages: 1 -->
<svg width="720pt" height="434pt"
 viewBox="0.00 0.00 720.00 434.14" xmlns="http://www.w3.org/2000/svg" xmlns:xlink="http://www.w3.org/1999/xlink">
<g id="graph0" class="graph" transform="scale(0.598397 0.598397) rotate(0) translate(4 721.5)">
<title>Tree</title>
<polygon fill="white" stroke="none" points="-4,4 -4,-721.5 1199.21,-721.5 1199.21,4 -4,4"/>
<!-- 0 -->
<g id="node1" class="node">
<title>0</title>
<path fill="#eaf5fc" stroke="black" d="M713.04,-718C713.04,-718 577.79,-718 577.79,-718 571.79,-718 565.79,-712 565.79,-706 565.79,-706 565.79,-656 565.79,-656 565.79,-650 571.79,-644 577.79,-644 577.79,-644 713.04,-644 713.04,-644 719.04,-644 725.04,-650 725.04,-656 725.04,-656 725.04,-706 725.04,-706 725.04,-712 719.04,-718 713.04,-718"/>
<text text-anchor="start" x="573.79" y="-700.7" font-family="Helvetica,sans-Serif" font-size="14.00">net_plus_minus ≤ 72.5</text>
<text text-anchor="start" x="616.54" y="-684.2" font-family="Helvetica,sans-Serif" font-size="14.00">gini = 0.5</text>
<text text-anchor="start" x="594.04" y="-667.7" font-family="Helvetica,sans-Serif" font-size="14.00">samples = 1326</text>
<text text-anchor="start" x="588.79" y="-651.2" font-family="Helvetica,sans-Serif" font-size="14.00">value = [626, 700]</text>
</g>
<!-- 1 -->
<g id="node2" class="node">
<title>1</title>
<path fill="#f7d9c4" stroke="black" d="M558.41,-608C558.41,-608 410.41,-608 410.41,-608 404.41,-608 398.41,-602 398.41,-596 398.41,-596 398.41,-546 398.41,-546 398.41,-540 404.41,-534 410.41,-534 410.41,-534 558.41,-534 558.41,-534 564.41,-534 570.41,-540 570.41,-546 570.41,-546 570.41,-596 570.41,-596 570.41,-602 564.41,-608 558.41,-608"/>
<text text-anchor="start" x="406.41" y="-590.7" font-family="Helvetica,sans-Serif" font-size="14.00">net_plus_minus ≤ &#45;271.5</text>
<text text-anchor="start" x="451.41" y="-574.2" font-family="Helvetica,sans-Serif" font-size="14.00">gini = 0.48</text>
<text text-anchor="start" x="437.16" y="-557.7" font-family="Helvetica,sans-Serif" font-size="14.00">samples = 781</text>
<text text-anchor="start" x="427.79" y="-541.2" font-family="Helvetica,sans-Serif" font-size="14.00">value = [459, 322]</text>
</g>
<!-- 0&#45;&gt;1 -->
<g id="edge1" class="edge">
<title>0&#45;&gt;1</title>
<path fill="none" stroke="black" d="M591.35,-643.74C577.42,-634.39 562.29,-624.24 547.92,-614.6"/>
<polygon fill="black" stroke="black" points="550.11,-611.86 539.86,-609.19 546.21,-617.67 550.11,-611.86"/>
<text text-anchor="middle" x="543.44" y="-627.83" font-family="Helvetica,sans-Serif" font-size="14.00">True</text>
</g>
<!-- 2 -->
<g id="node13" class="node">
<title>2</title>
<path fill="#90c8f0" stroke="black" d="M879.16,-608C879.16,-608 735.66,-608 735.66,-608 729.66,-608 723.66,-602 723.66,-596 723.66,-596 723.66,-546 723.66,-546 723.66,-540 729.66,-534 735.66,-534 735.66,-534 879.16,-534 879.16,-534 885.16,-534 891.16,-540 891.16,-546 891.16,-546 891.16,-596 891.16,-596 891.16,-602 885.16,-608 879.16,-608"/>
<text text-anchor="start" x="731.66" y="-590.7" font-family="Helvetica,sans-Serif" font-size="14.00">net_plus_minus ≤ 290.5</text>
<text text-anchor="start" x="774.41" y="-574.2" font-family="Helvetica,sans-Serif" font-size="14.00">gini = 0.43</text>
<text text-anchor="start" x="760.16" y="-557.7" font-family="Helvetica,sans-Serif" font-size="14.00">samples = 545</text>
<text text-anchor="start" x="750.79" y="-541.2" font-family="Helvetica,sans-Serif" font-size="14.00">value = [167, 378]</text>
</g>
<!-- 0&#45;&gt;2 -->
<g id="edge12" class="edge">
<title>0&#45;&gt;2</title>
<path fill="none" stroke="black" d="M699.81,-643.74C713.83,-634.39 729.05,-624.24 743.51,-614.6"/>
<polygon fill="black" stroke="black" points="745.25,-617.65 751.63,-609.19 741.36,-611.83 745.25,-617.65"/>
<text text-anchor="middle" x="747.98" y="-627.82" font-family="Helvetica,sans-Serif" font-size="14.00">False</text>
</g>
<!-- 3 -->
<g id="node3" class="node">
<title>3</title>
<path fill="#efb083" stroke="black" d="M270.91,-489.75C270.91,-489.75 173.91,-489.75 173.91,-489.75 167.91,-489.75 161.91,-483.75 161.91,-477.75 161.91,-477.75 161.91,-444.25 161.91,-444.25 161.91,-438.25 167.91,-432.25 173.91,-432.25 173.91,-432.25 270.91,-432.25 270.91,-432.25 276.91,-432.25 282.91,-438.25 282.91,-444.25 282.91,-444.25 282.91,-477.75 282.91,-477.75 282.91,-483.75 276.91,-489.75 270.91,-489.75"/>
<text text-anchor="start" x="193.54" y="-472.45" font-family="Helvetica,sans-Serif" font-size="14.00">gini = 0.4</text>
<text text-anchor="start" x="175.16" y="-455.95" font-family="Helvetica,sans-Serif" font-size="14.00">samples = 282</text>
<text text-anchor="start" x="169.91" y="-439.45" font-family="Helvetica,sans-Serif" font-size="14.00">value = [205, 77]</text>
</g>
<!-- 1&#45;&gt;3 -->
<g id="edge2" class="edge">
<title>1&#45;&gt;3</title>
<path fill="none" stroke="black" d="M398.26,-534.49C364.35,-520.51 325.87,-504.65 293.58,-491.33"/>
<polygon fill="black" stroke="black" points="295.3,-488.26 284.72,-487.68 292.63,-494.73 295.3,-488.26"/>
</g>
<!-- 4 -->
<g id="node4" class="node">
<title>4</title>
<path fill="#fefbf8" stroke="black" d="M554.04,-498C554.04,-498 424.79,-498 424.79,-498 418.79,-498 412.79,-492 412.79,-486 412.79,-486 412.79,-436 412.79,-436 412.79,-430 418.79,-424 424.79,-424 424.79,-424 554.04,-424 554.04,-424 560.04,-424 566.04,-430 566.04,-436 566.04,-436 566.04,-486 566.04,-486 566.04,-492 560.04,-498 554.04,-498"/>
<text text-anchor="start" x="437.66" y="-480.7" font-family="Helvetica,sans-Serif" font-size="14.00">net_GPG ≤ 0.45</text>
<text text-anchor="start" x="460.54" y="-464.2" font-family="Helvetica,sans-Serif" font-size="14.00">gini = 0.5</text>
<text text-anchor="start" x="442.16" y="-447.7" font-family="Helvetica,sans-Serif" font-size="14.00">samples = 499</text>
<text text-anchor="start" x="420.79" y="-431.2" font-family="Helvetica,sans-Serif" font-size="14.00">value = [254.0, 245.0]</text>
</g>
<!-- 1&#45;&gt;4 -->
<g id="edge3" class="edge">
<title>1&#45;&gt;4</title>
<path fill="none" stroke="black" d="M486.09,-533.74C486.45,-525.99 486.83,-517.7 487.21,-509.6"/>
<polygon fill="black" stroke="black" points="490.69,-510.01 487.66,-499.86 483.7,-509.69 490.69,-510.01"/>
</g>
<!-- 7 -->
<g id="node5" class="node">
<title>7</title>
<path fill="#fdf4ed" stroke="black" d="M332.04,-388C332.04,-388 226.79,-388 226.79,-388 220.79,-388 214.79,-382 214.79,-376 214.79,-376 214.79,-326 214.79,-326 214.79,-320 220.79,-314 226.79,-314 226.79,-314 332.04,-314 332.04,-314 338.04,-314 344.04,-320 344.04,-326 344.04,-326 344.04,-376 344.04,-376 344.04,-382 338.04,-388 332.04,-388"/>
<text text-anchor="start" x="227.66" y="-370.7" font-family="Helvetica,sans-Serif" font-size="14.00">net_GPG ≤ 0.09</text>
<text text-anchor="start" x="250.54" y="-354.2" font-family="Helvetica,sans-Serif" font-size="14.00">gini = 0.5</text>
<text text-anchor="start" x="232.16" y="-337.7" font-family="Helvetica,sans-Serif" font-size="14.00">samples = 470</text>
<text text-anchor="start" x="222.79" y="-321.2" font-family="Helvetica,sans-Serif" font-size="14.00">value = [246, 224]</text>
</g>
<!-- 4&#45;&gt;7 -->
<g id="edge4" class="edge">
<title>4&#45;&gt;7</title>
<path fill="none" stroke="black" d="M418.61,-423.59C397.94,-412.96 375.28,-401.31 354.37,-390.55"/>
<polygon fill="black" stroke="black" points="356.09,-387.5 345.6,-386.04 352.89,-393.72 356.09,-387.5"/>
</g>
<!-- 8 -->
<g id="node12" class="node">
<title>8</title>
<path fill="#84c2ef" stroke="black" d="M551.66,-379.75C551.66,-379.75 471.16,-379.75 471.16,-379.75 465.16,-379.75 459.16,-373.75 459.16,-367.75 459.16,-367.75 459.16,-334.25 459.16,-334.25 459.16,-328.25 465.16,-322.25 471.16,-322.25 471.16,-322.25 551.66,-322.25 551.66,-322.25 557.66,-322.25 563.66,-328.25 563.66,-334.25 563.66,-334.25 563.66,-367.75 563.66,-367.75 563.66,-373.75 557.66,-379.75 551.66,-379.75"/>
<text text-anchor="start" x="482.54" y="-362.45" font-family="Helvetica,sans-Serif" font-size="14.00">gini = 0.4</text>
<text text-anchor="start" x="468.29" y="-345.95" font-family="Helvetica,sans-Serif" font-size="14.00">samples = 29</text>
<text text-anchor="start" x="467.16" y="-329.45" font-family="Helvetica,sans-Serif" font-size="14.00">value = [8, 21]</text>
</g>
<!-- 4&#45;&gt;8 -->
<g id="edge11" class="edge">
<title>4&#45;&gt;8</title>
<path fill="none" stroke="black" d="M496.8,-423.74C498.93,-413.3 501.26,-401.86 503.42,-391.25"/>
<polygon fill="black" stroke="black" points="506.81,-392.12 505.38,-381.63 499.95,-390.73 506.81,-392.12"/>
</g>
<!-- 9 -->
<g id="node6" class="node">
<title>9</title>
<path fill="#f8fcfe" stroke="black" d="M164.04,-269.75C164.04,-269.75 58.79,-269.75 58.79,-269.75 52.79,-269.75 46.79,-263.75 46.79,-257.75 46.79,-257.75 46.79,-224.25 46.79,-224.25 46.79,-218.25 52.79,-212.25 58.79,-212.25 58.79,-212.25 164.04,-212.25 164.04,-212.25 170.04,-212.25 176.04,-218.25 176.04,-224.25 176.04,-224.25 176.04,-257.75 176.04,-257.75 176.04,-263.75 170.04,-269.75 164.04,-269.75"/>
<text text-anchor="start" x="82.54" y="-252.45" font-family="Helvetica,sans-Serif" font-size="14.00">gini = 0.5</text>
<text text-anchor="start" x="64.16" y="-235.95" font-family="Helvetica,sans-Serif" font-size="14.00">samples = 350</text>
<text text-anchor="start" x="54.79" y="-219.45" font-family="Helvetica,sans-Serif" font-size="14.00">value = [172, 178]</text>
</g>
<!-- 7&#45;&gt;9 -->
<g id="edge5" class="edge">
<title>7&#45;&gt;9</title>
<path fill="none" stroke="black" d="M223,-313.74C204.17,-301.63 183.26,-288.19 164.67,-276.24"/>
<polygon fill="black" stroke="black" points="166.77,-273.42 156.46,-270.96 162.98,-279.31 166.77,-273.42"/>
</g>
<!-- 10 -->
<g id="node7" class="node">
<title>10</title>
<path fill="#f5cfb4" stroke="black" d="M411.16,-278C411.16,-278 309.66,-278 309.66,-278 303.66,-278 297.66,-272 297.66,-266 297.66,-266 297.66,-216 297.66,-216 297.66,-210 303.66,-204 309.66,-204 309.66,-204 411.16,-204 411.16,-204 417.16,-204 423.16,-210 423.16,-216 423.16,-216 423.16,-266 423.16,-266 423.16,-272 417.16,-278 411.16,-278"/>
<text text-anchor="start" x="305.66" y="-260.7" font-family="Helvetica,sans-Serif" font-size="14.00">net_PPGs ≤ 11.5</text>
<text text-anchor="start" x="327.41" y="-244.2" font-family="Helvetica,sans-Serif" font-size="14.00">gini = 0.47</text>
<text text-anchor="start" x="313.16" y="-227.7" font-family="Helvetica,sans-Serif" font-size="14.00">samples = 120</text>
<text text-anchor="start" x="312.04" y="-211.2" font-family="Helvetica,sans-Serif" font-size="14.00">value = [74, 46]</text>
</g>
<!-- 7&#45;&gt;10 -->
<g id="edge6" class="edge">
<title>7&#45;&gt;10</title>
<path fill="none" stroke="black" d="M306.61,-313.74C312.95,-305.28 319.79,-296.16 326.39,-287.37"/>
<polygon fill="black" stroke="black" points="329.04,-289.66 332.24,-279.56 323.44,-285.46 329.04,-289.66"/>
</g>
<!-- 11 -->
<g id="node8" class="node">
<title>11</title>
<path fill="#efb286" stroke="black" d="M270.79,-159.75C270.79,-159.75 182.04,-159.75 182.04,-159.75 176.04,-159.75 170.04,-153.75 170.04,-147.75 170.04,-147.75 170.04,-114.25 170.04,-114.25 170.04,-108.25 176.04,-102.25 182.04,-102.25 182.04,-102.25 270.79,-102.25 270.79,-102.25 276.79,-102.25 282.79,-108.25 282.79,-114.25 282.79,-114.25 282.79,-147.75 282.79,-147.75 282.79,-153.75 276.79,-159.75 270.79,-159.75"/>
<text text-anchor="start" x="197.54" y="-142.45" font-family="Helvetica,sans-Serif" font-size="14.00">gini = 0.4</text>
<text text-anchor="start" x="183.29" y="-125.95" font-family="Helvetica,sans-Serif" font-size="14.00">samples = 61</text>
<text text-anchor="start" x="178.04" y="-109.45" font-family="Helvetica,sans-Serif" font-size="14.00">value = [44, 17]</text>
</g>
<!-- 10&#45;&gt;11 -->
<g id="edge7" class="edge">
<title>10&#45;&gt;11</title>
<path fill="none" stroke="black" d="M315.42,-203.74C300.81,-191.96 284.63,-178.93 270.12,-167.23"/>
<polygon fill="black" stroke="black" points="272.49,-164.64 262.51,-161.09 268.1,-170.09 272.49,-164.64"/>
</g>
<!-- 12 -->
<g id="node9" class="node">
<title>12</title>
<path fill="#fefbf8" stroke="black" d="M564.29,-168C564.29,-168 424.54,-168 424.54,-168 418.54,-168 412.54,-162 412.54,-156 412.54,-156 412.54,-106 412.54,-106 412.54,-100 418.54,-94 424.54,-94 424.54,-94 564.29,-94 564.29,-94 570.29,-94 576.29,-100 576.29,-106 576.29,-106 576.29,-156 576.29,-156 576.29,-162 570.29,-168 564.29,-168"/>
<text text-anchor="start" x="420.54" y="-150.7" font-family="Helvetica,sans-Serif" font-size="14.00">net_plus_minus ≤ &#45;96.5</text>
<text text-anchor="start" x="465.54" y="-134.2" font-family="Helvetica,sans-Serif" font-size="14.00">gini = 0.5</text>
<text text-anchor="start" x="451.29" y="-117.7" font-family="Helvetica,sans-Serif" font-size="14.00">samples = 59</text>
<text text-anchor="start" x="446.04" y="-101.2" font-family="Helvetica,sans-Serif" font-size="14.00">value = [30, 29]</text>
</g>
<!-- 10&#45;&gt;12 -->
<g id="edge8" class="edge">
<title>10&#45;&gt;12</title>
<path fill="none" stroke="black" d="M405.41,-203.74C416.67,-194.65 428.88,-184.82 440.53,-175.43"/>
<polygon fill="black" stroke="black" points="442.54,-178.3 448.13,-169.3 438.15,-172.85 442.54,-178.3"/>
</g>
<!-- 13 -->
<g id="node10" class="node">
<title>13</title>
<path fill="#eeae80" stroke="black" d="M424.66,-57.75C424.66,-57.75 344.16,-57.75 344.16,-57.75 338.16,-57.75 332.16,-51.75 332.16,-45.75 332.16,-45.75 332.16,-12.25 332.16,-12.25 332.16,-6.25 338.16,-0.25 344.16,-0.25 344.16,-0.25 424.66,-0.25 424.66,-0.25 430.66,-0.25 436.66,-6.25 436.66,-12.25 436.66,-12.25 436.66,-45.75 436.66,-45.75 436.66,-51.75 430.66,-57.75 424.66,-57.75"/>
<text text-anchor="start" x="351.41" y="-40.45" font-family="Helvetica,sans-Serif" font-size="14.00">gini = 0.39</text>
<text text-anchor="start" x="341.29" y="-23.95" font-family="Helvetica,sans-Serif" font-size="14.00">samples = 19</text>
<text text-anchor="start" x="340.16" y="-7.45" font-family="Helvetica,sans-Serif" font-size="14.00">value = [14, 5]</text>
</g>
<!-- 12&#45;&gt;13 -->
<g id="edge9" class="edge">
<title>12&#45;&gt;13</title>
<path fill="none" stroke="black" d="M454.39,-93.61C444.41,-84.54 433.72,-74.83 423.78,-65.79"/>
<polygon fill="black" stroke="black" points="426.14,-63.2 416.39,-59.07 421.43,-68.38 426.14,-63.2"/>
</g>
<!-- 14 -->
<g id="node11" class="node">
<title>14</title>
<path fill="#bddef6" stroke="black" d="M646.79,-57.75C646.79,-57.75 558.04,-57.75 558.04,-57.75 552.04,-57.75 546.04,-51.75 546.04,-45.75 546.04,-45.75 546.04,-12.25 546.04,-12.25 546.04,-6.25 552.04,-0.25 558.04,-0.25 558.04,-0.25 646.79,-0.25 646.79,-0.25 652.79,-0.25 658.79,-6.25 658.79,-12.25 658.79,-12.25 658.79,-45.75 658.79,-45.75 658.79,-51.75 652.79,-57.75 646.79,-57.75"/>
<text text-anchor="start" x="569.41" y="-40.45" font-family="Helvetica,sans-Serif" font-size="14.00">gini = 0.48</text>
<text text-anchor="start" x="559.29" y="-23.95" font-family="Helvetica,sans-Serif" font-size="14.00">samples = 40</text>
<text text-anchor="start" x="554.04" y="-7.45" font-family="Helvetica,sans-Serif" font-size="14.00">value = [16, 24]</text>
</g>
<!-- 12&#45;&gt;14 -->
<g id="edge10" class="edge">
<title>12&#45;&gt;14</title>
<path fill="none" stroke="black" d="M533.71,-93.61C543.5,-84.54 554,-74.83 563.76,-65.79"/>
<polygon fill="black" stroke="black" points="566.05,-68.44 571.01,-59.08 561.29,-63.3 566.05,-68.44"/>
</g>
<!-- 5 -->
<g id="node14" class="node">
<title>5</title>
<path fill="#b0d8f5" stroke="black" d="M880.91,-498C880.91,-498 729.91,-498 729.91,-498 723.91,-498 717.91,-492 717.91,-486 717.91,-486 717.91,-436 717.91,-436 717.91,-430 723.91,-424 729.91,-424 729.91,-424 880.91,-424 880.91,-424 886.91,-424 892.91,-430 892.91,-436 892.91,-436 892.91,-486 892.91,-486 892.91,-492 886.91,-498 880.91,-498"/>
<text text-anchor="start" x="725.91" y="-480.7" font-family="Helvetica,sans-Serif" font-size="14.00">net_shots_against ≤ 2.55</text>
<text text-anchor="start" x="772.41" y="-464.2" font-family="Helvetica,sans-Serif" font-size="14.00">gini = 0.47</text>
<text text-anchor="start" x="758.16" y="-447.7" font-family="Helvetica,sans-Serif" font-size="14.00">samples = 275</text>
<text text-anchor="start" x="748.79" y="-431.2" font-family="Helvetica,sans-Serif" font-size="14.00">value = [103, 172]</text>
</g>
<!-- 2&#45;&gt;5 -->
<g id="edge13" class="edge">
<title>2&#45;&gt;5</title>
<path fill="none" stroke="black" d="M806.74,-533.74C806.6,-525.99 806.44,-517.7 806.29,-509.6"/>
<polygon fill="black" stroke="black" points="809.8,-509.8 806.11,-499.86 802.8,-509.93 809.8,-509.8"/>
</g>
<!-- 6 -->
<g id="node19" class="node">
<title>6</title>
<path fill="#77bbed" stroke="black" d="M1139.91,-489.75C1139.91,-489.75 1042.91,-489.75 1042.91,-489.75 1036.91,-489.75 1030.91,-483.75 1030.91,-477.75 1030.91,-477.75 1030.91,-444.25 1030.91,-444.25 1030.91,-438.25 1036.91,-432.25 1042.91,-432.25 1042.91,-432.25 1139.91,-432.25 1139.91,-432.25 1145.91,-432.25 1151.91,-438.25 1151.91,-444.25 1151.91,-444.25 1151.91,-477.75 1151.91,-477.75 1151.91,-483.75 1145.91,-489.75 1139.91,-489.75"/>
<text text-anchor="start" x="1058.41" y="-472.45" font-family="Helvetica,sans-Serif" font-size="14.00">gini = 0.36</text>
<text text-anchor="start" x="1044.16" y="-455.95" font-family="Helvetica,sans-Serif" font-size="14.00">samples = 270</text>
<text text-anchor="start" x="1038.91" y="-439.45" font-family="Helvetica,sans-Serif" font-size="14.00">value = [64, 206]</text>
</g>
<!-- 2&#45;&gt;6 -->
<g id="edge18" class="edge">
<title>2&#45;&gt;6</title>
<path fill="none" stroke="black" d="M891.47,-538.03C932.28,-522.51 980.81,-504.06 1019.83,-489.22"/>
<polygon fill="black" stroke="black" points="1021.06,-492.5 1029.16,-485.67 1018.57,-485.96 1021.06,-492.5"/>
</g>
<!-- 15 -->
<g id="node15" class="node">
<title>15</title>
<path fill="#a7d3f3" stroke="black" d="M834.29,-388C834.29,-388 736.54,-388 736.54,-388 730.54,-388 724.54,-382 724.54,-376 724.54,-376 724.54,-326 724.54,-326 724.54,-320 730.54,-314 736.54,-314 736.54,-314 834.29,-314 834.29,-314 840.29,-314 846.29,-320 846.29,-326 846.29,-326 846.29,-376 846.29,-376 846.29,-382 840.29,-388 834.29,-388"/>
<text text-anchor="start" x="732.54" y="-370.7" font-family="Helvetica,sans-Serif" font-size="14.00">net_SHGs ≤ &#45;0.5</text>
<text text-anchor="start" x="752.41" y="-354.2" font-family="Helvetica,sans-Serif" font-size="14.00">gini = 0.46</text>
<text text-anchor="start" x="738.16" y="-337.7" font-family="Helvetica,sans-Serif" font-size="14.00">samples = 258</text>
<text text-anchor="start" x="732.91" y="-321.2" font-family="Helvetica,sans-Serif" font-size="14.00">value = [92, 166]</text>
</g>
<!-- 5&#45;&gt;15 -->
<g id="edge14" class="edge">
<title>5&#45;&gt;15</title>
<path fill="none" stroke="black" d="M798.7,-423.74C797.26,-415.99 795.73,-407.7 794.23,-399.6"/>
<polygon fill="black" stroke="black" points="797.68,-399.03 792.42,-389.84 790.8,-400.31 797.68,-399.03"/>
</g>
<!-- 16 -->
<g id="node18" class="node">
<title>16</title>
<path fill="#f3c6a5" stroke="black" d="M1050.66,-379.75C1050.66,-379.75 970.16,-379.75 970.16,-379.75 964.16,-379.75 958.16,-373.75 958.16,-367.75 958.16,-367.75 958.16,-334.25 958.16,-334.25 958.16,-328.25 964.16,-322.25 970.16,-322.25 970.16,-322.25 1050.66,-322.25 1050.66,-322.25 1056.66,-322.25 1062.66,-328.25 1062.66,-334.25 1062.66,-334.25 1062.66,-367.75 1062.66,-367.75 1062.66,-373.75 1056.66,-379.75 1050.66,-379.75"/>
<text text-anchor="start" x="977.41" y="-362.45" font-family="Helvetica,sans-Serif" font-size="14.00">gini = 0.46</text>
<text text-anchor="start" x="967.29" y="-345.95" font-family="Helvetica,sans-Serif" font-size="14.00">samples = 17</text>
<text text-anchor="start" x="966.16" y="-329.45" font-family="Helvetica,sans-Serif" font-size="14.00">value = [11, 6]</text>
</g>
<!-- 5&#45;&gt;16 -->
<g id="edge17" class="edge">
<title>5&#45;&gt;16</title>
<path fill="none" stroke="black" d="M874.53,-423.59C898.22,-411.1 924.59,-397.21 947.74,-385.02"/>
<polygon fill="black" stroke="black" points="949.24,-388.19 956.45,-380.43 945.97,-381.99 949.24,-388.19"/>
</g>
<!-- 17 -->
<g id="node16" class="node">
<title>17</title>
<path fill="#ddeefa" stroke="black" d="M750.79,-269.75C750.79,-269.75 662.04,-269.75 662.04,-269.75 656.04,-269.75 650.04,-263.75 650.04,-257.75 650.04,-257.75 650.04,-224.25 650.04,-224.25 650.04,-218.25 656.04,-212.25 662.04,-212.25 662.04,-212.25 750.79,-212.25 750.79,-212.25 756.79,-212.25 762.79,-218.25 762.79,-224.25 762.79,-224.25 762.79,-257.75 762.79,-257.75 762.79,-263.75 756.79,-269.75 750.79,-269.75"/>
<text text-anchor="start" x="677.54" y="-252.45" font-family="Helvetica,sans-Serif" font-size="14.00">gini = 0.5</text>
<text text-anchor="start" x="663.29" y="-235.95" font-family="Helvetica,sans-Serif" font-size="14.00">samples = 95</text>
<text text-anchor="start" x="658.04" y="-219.45" font-family="Helvetica,sans-Serif" font-size="14.00">value = [43, 52]</text>
</g>
<!-- 15&#45;&gt;17 -->
<g id="edge15" class="edge">
<title>15&#45;&gt;17</title>
<path fill="none" stroke="black" d="M758.89,-313.74C750.76,-302.63 741.81,-290.4 733.64,-279.23"/>
<polygon fill="black" stroke="black" points="736.62,-277.37 727.89,-271.36 730.97,-281.5 736.62,-277.37"/>
</g>
<!-- 18 -->
<g id="node17" class="node">
<title>18</title>
<path fill="#8ec7f0" stroke="black" d="M986.91,-269.75C986.91,-269.75 889.91,-269.75 889.91,-269.75 883.91,-269.75 877.91,-263.75 877.91,-257.75 877.91,-257.75 877.91,-224.25 877.91,-224.25 877.91,-218.25 883.91,-212.25 889.91,-212.25 889.91,-212.25 986.91,-212.25 986.91,-212.25 992.91,-212.25 998.91,-218.25 998.91,-224.25 998.91,-224.25 998.91,-257.75 998.91,-257.75 998.91,-263.75 992.91,-269.75 986.91,-269.75"/>
<text text-anchor="start" x="905.41" y="-252.45" font-family="Helvetica,sans-Serif" font-size="14.00">gini = 0.42</text>
<text text-anchor="start" x="891.16" y="-235.95" font-family="Helvetica,sans-Serif" font-size="14.00">samples = 163</text>
<text text-anchor="start" x="885.91" y="-219.45" font-family="Helvetica,sans-Serif" font-size="14.00">value = [49, 114]</text>
</g>
<!-- 15&#45;&gt;18 -->
<g id="edge16" class="edge">
<title>15&#45;&gt;18</title>
<path fill="none" stroke="black" d="M836.79,-313.74C853.78,-301.74 872.63,-288.43 889.44,-276.57"/>
<polygon fill="black" stroke="black" points="891.16,-279.64 897.31,-271.02 887.12,-273.92 891.16,-279.64"/>
</g>
</g>
</svg>
